<?xml version="1.0" encoding="utf-8"?>
<!-- Generator: Adobe Illustrator 16.0.0, SVG Export Plug-In . SVG Version: 6.00 Build 0)  -->
<!DOCTYPE svg PUBLIC "-//W3C//DTD SVG 1.1//EN" "http://www.w3.org/Graphics/SVG/1.1/DTD/svg11.dtd">
<svg version="1.1" id="Calque_1" xmlns="http://www.w3.org/2000/svg" xmlns:xlink="http://www.w3.org/1999/xlink" x="0px" y="0px"
	 width="42px" height="42.063px" viewBox="0 0 42 42.063" enable-background="new 0 0 42 42.063" xml:space="preserve">
<title>map_marker</title>
<path fill="#FFFFFF" d="M4.2,0.25h33.7c2.199,0,4,1.8,4,4v33.7c0,2.2-1.801,4-4,4H4.2c-2.2,0-4-1.8-4-4V4.25
	C0.2,2.05,2,0.25,4.2,0.25z"/>
<polyline fill="none" stroke="#EB008B" stroke-width="1.75" stroke-linecap="round" stroke-linejoin="round" points="17.2,35.15 
	9.7,35.15 9.7,21.05 5,21.05 21,5.05 37,21.05 32.3,21.05 32.3,35.15 24.8,35.15 "/>
<path fill="none" stroke="#EB008B" stroke-width="1.75" stroke-linecap="round" stroke-linejoin="round" d="M21,24.35
	c0-2.3-1.9-4.2-4.2-4.2c-2.3,0-4.2,1.9-4.2,4.2c0,1.1,0.4,2.2,1.2,3L21,35.15l7.2-7.801c1.7-1.7,1.6-4.3,0-6c-1.601-1.7-4.3-1.6-6,0
	C21.4,22.15,21,23.15,21,24.35"/>
<path fill="none" stroke="#EB008B" stroke-width="0.75" stroke-linecap="round" stroke-linejoin="round" d="M24.6,22.05
	c1.5,0,2.7,1.2,2.7,2.7"/>
<path fill="none" stroke="#EB008B" stroke-width="0.75" stroke-linecap="round" stroke-linejoin="round" d="M17.4,22.05
	c-1.5,0-2.7,1.2-2.7,2.7l0,0"/>
</svg>
